<?xml version="1.0" encoding="UTF-8"?>
<!DOCTYPE svg  PUBLIC '-//W3C//DTD SVG 1.1//EN'  'http://www.w3.org/Graphics/SVG/1.1/DTD/svg11.dtd'>
<svg enable-background="new 0 0 500 300" version="1.1" viewBox="0 0 500 300" xml:space="preserve" xmlns="http://www.w3.org/2000/svg">
<g fill="#FB503B">
	<path d="m154.76 236.6c-0.331 0-0.579-0.082-0.744-0.248-0.579-0.165-1.075-0.661-0.992-1.157 0.165-1.488 0.413-2.894 0.826-4.216 0.166-0.662 0.744-0.91 1.323-0.744 0.495 0.082 0.743 0.744 0.661 1.24-0.33 0.991-0.578 2.149-0.661 3.141h3.638c0.661 0 1.074 0.414 1.074 0.992 0 0.579-0.413 0.992-1.074 0.992h-4.051zm-1.571 2.976c-0.165-0.661 0.248-1.157 0.909-1.157 0.496-0.083 1.075 0.33 1.075 0.826 0.165 1.405 0.495 2.563 0.909 3.886 0.166 0.496-0.166 1.075-0.661 1.323h-0.248c-0.413 0-0.909-0.248-0.992-0.662-0.496-1.322-0.827-2.728-0.992-4.216zm2.315-12.649c0.744-1.405 1.57-2.479 2.563-3.637 0.33-0.414 0.992-0.414 1.405-0.166 0.413 0.414 0.496 1.075 0.083 1.571-0.744 0.909-1.488 1.984-2.315 3.142 0 0.413-0.496 0.661-0.743 0.661-0.248 0-0.414-0.165-0.58-0.248-0.496-0.248-0.744-0.827-0.413-1.323zm0.579 20.834c-0.33-0.579-0.248-1.157 0.248-1.488 0.578-0.248 1.157-0.083 1.488 0.331 0.578 1.157 1.405 2.149 2.397 3.142 0.413 0.413 0.331 1.074-0.083 1.487-0.165 0.166-0.413 0.248-0.661 0.248s-0.661-0.082-0.827-0.248c-0.909-1.075-1.901-2.232-2.562-3.472zm5.209-27.365c1.156-0.91 2.479-1.571 3.803-2.232 0.496-0.248 1.156 0 1.322 0.496 0.248 0.578 0 1.157-0.496 1.405-1.24 0.496-2.397 1.24-3.473 1.901-0.165 0.165-0.33 0.248-0.578 0.248-0.33 0-0.578-0.083-0.826-0.413-0.332-0.495-0.249-1.157 0.248-1.405zm0.826 33.565c-0.578-0.248-0.662-0.909-0.33-1.405 0.33-0.579 0.908-0.661 1.487-0.331 0.992 0.744 2.067 1.323 3.39 1.736 0.496 0.248 0.826 0.909 0.578 1.323-0.082 0.495-0.496 0.743-0.908 0.743-0.084 0-0.166-0.082-0.414-0.082-1.323-0.496-2.646-1.075-3.803-1.984zm0.909-17.361c-0.579 0-1.075-0.413-1.075-0.992 0-0.578 0.496-0.992 1.075-0.992h4.134c0.661 0 1.074 0.414 1.074 0.992 0 0.579-0.413 0.992-1.074 0.992h-4.134zm6.2-19.676c1.158-0.165 2.15-0.331 3.307-0.331 0.331 0 0.744 0 1.075 0.166 0.579 0 0.992 0.496 0.992 0.992-0.083 0.661-0.496 1.074-1.157 1.074-0.248-0.165-0.579-0.165-0.91-0.165-0.992 0-1.983 0.165-2.893 0.33h-0.248c-0.496 0-0.91-0.413-0.992-0.826-0.083-0.661 0.33-1.157 0.826-1.24zm0.166 38.938c0-0.578 0.496-0.992 1.074-0.992 0.662 0.166 1.406 0.166 2.066 0.166 0.662 0 1.323 0 1.819-0.166 0.661 0 1.075 0.414 1.075 0.992 0.165 0.579-0.248 1.157-0.827 1.157-0.661 0.083-1.323 0.083-2.067 0.083-0.826 0-1.57 0-2.396-0.083-0.496-0.165-0.91-0.661-0.744-1.157zm1.901-19.262c-0.496 0-0.992-0.413-0.992-0.992 0-0.578 0.496-0.992 0.992-0.992h4.134c0.661 0 1.074 0.414 1.074 0.992 0 0.579-0.413 0.992-1.074 0.992h-4.134zm6.035-17.196c-0.496-0.166-0.826-0.744-0.578-1.24 0.082-0.661 0.744-0.909 1.24-0.744 1.405 0.496 2.729 0.992 4.051 1.653 0.496 0.331 0.578 0.992 0.414 1.488-0.248 0.331-0.662 0.496-0.91 0.496s-0.496 0-0.578-0.083c-1.159-0.578-2.399-1.157-3.639-1.57zm0.827 34.722c1.24-0.413 2.397-1.074 3.556-1.735 0.496-0.248 1.156-0.166 1.404 0.413 0.331 0.331 0.166 0.992-0.248 1.322-1.322 0.744-2.645 1.406-3.968 1.901h-0.413c-0.414 0-0.826-0.165-0.992-0.578-0.166-0.579 0.166-1.157 0.661-1.323zm1.405-17.526c-0.496 0-0.992-0.413-0.992-0.992 0-0.578 0.496-0.992 0.992-0.992h4.217c0.661 0 0.992 0.414 0.992 0.992 0 0.579-0.331 0.992-0.992 0.992h-4.217zm4.465-13.31c-0.414-0.414-0.414-1.075 0-1.488 0.413-0.413 1.074-0.496 1.57-0.083 0.992 0.992 1.902 2.067 2.894 3.307 0.248 0.414 0.165 1.158-0.413 1.488-0.166 0.083-0.414 0.166-0.578 0.166-0.331 0-0.579-0.166-0.827-0.496-0.745-1.076-1.572-2.068-2.646-2.894zm0.661 26.62c0.909-0.909 1.819-1.984 2.48-3.142 0.331-0.331 0.909-0.579 1.487-0.248 0.414 0.248 0.579 0.909 0.331 1.405-0.909 1.323-1.818 2.397-2.811 3.473-0.083 0.248-0.413 0.33-0.744 0.33-0.248 0-0.496-0.082-0.744-0.33-0.412-0.414-0.412-1.075 1e-3 -1.488zm3.224-13.31c-0.496 0-0.991-0.413-0.991-0.992 0-0.578 0.495-0.992 0.991-0.992h3.143c0.496 0 1.074 0.414 1.074 0.992 0 0.579-0.578 0.992-1.074 0.992h-3.143zm0.744-7.028c-0.33-0.495 0-1.074 0.496-1.322s1.158 0 1.406 0.661c0.496 1.157 0.909 2.646 1.157 4.134 0.165 0.496-0.165 1.075-0.744 1.24h-0.248c-0.413 0-0.909-0.413-1.075-0.827-0.165-1.405-0.578-2.646-0.992-3.886z"/>
	<path d="m204.45 217.59c0-0.496 0.413-1.074 1.075-1.074 0.496 0 1.074 0.578 1.074 1.074v4.299c0 0.662-0.578 1.075-1.074 1.075-0.662 0-1.075-0.413-1.075-1.075v-4.299zm0 8.599c0-0.579 0.413-1.158 1.075-1.158 0.496 0 1.074 0.579 1.074 1.158v4.216c0 0.661-0.578 1.075-1.074 1.075-0.662 0-1.075-0.414-1.075-1.075v-4.216zm0 10.995v-2.48c0-0.578 0.413-1.074 1.075-1.074h0.165c0.083-0.166 0.248-0.414 0.331-0.662 0.165-0.578 0.744-0.826 1.323-0.578 0.578 0.165 0.826 0.826 0.66 1.405-0.826 1.818-1.239 3.059-1.405 3.555v1.652c0 0.579-0.578 0.992-1.074 0.992-0.662 0-1.075-0.413-1.075-0.992v-1.818zm0 6.035c0-0.579 0.413-1.075 1.075-1.075 0.496 0 1.074 0.496 1.074 1.075v4.299c0 0.578-0.578 1.074-1.074 1.074-0.662 0-1.075-0.496-1.075-1.074v-4.299zm0 8.597c0-0.579 0.413-1.157 1.075-1.157 0.496 0 1.074 0.578 1.074 1.157v4.216c0 0.662-0.578 1.075-1.074 1.075-0.662 0-1.075-0.413-1.075-1.075v-4.216zm3.472-22.734c0.744-1.323 1.488-2.646 2.398-3.804 0.33-0.496 0.992-0.578 1.488-0.248 0.412 0.414 0.578 0.992 0.248 1.571-0.828 1.157-1.572 2.314-2.232 3.39-0.248 0.413-0.496 0.661-0.992 0.661-0.166 0-0.332-0.165-0.496-0.248-0.578-0.165-0.662-0.909-0.414-1.322zm5.291-7.193c1.074-0.909 2.314-1.901 3.555-2.811 0.496-0.165 1.158-0.083 1.488 0.496 0.33 0.413 0.082 1.157-0.33 1.405-1.158 0.661-2.232 1.571-3.225 2.563-0.166 0.165-0.578 0.248-0.744 0.248-0.33 0-0.496-0.083-0.744-0.248-0.412-0.495-0.412-1.239 0-1.653zm7.69-4.547c1.404-0.413 2.893-0.661 4.463-0.826 0.58 0 1.076 0.578 1.076 1.074 0 0.662-0.414 1.075-1.076 1.075-1.322 0.165-2.645 0.33-3.885 0.661 0 0-0.166 0.083-0.248 0.083-0.496 0-0.992-0.331-1.074-0.827-0.166-0.496 0.082-1.074 0.744-1.24z"/>
	<path d="m240.74 217.59c0-0.496 0.414-1.074 1.076-1.074 0.496 0 1.074 0.578 1.074 1.074v4.299c0 0.662-0.578 1.075-1.074 1.075-0.662 0-1.076-0.413-1.076-1.075v-4.299zm0 8.599c0-0.579 0.414-1.158 1.076-1.158 0.496 0 1.074 0.579 1.074 1.158v4.216c0 0.661-0.578 1.075-1.074 1.075-0.662 0-1.076-0.414-1.076-1.075v-4.216zm0 10.995v-2.48c0-0.578 0.414-1.074 1.076-1.074h0.164c0.084-0.166 0.248-0.414 0.332-0.662 0.164-0.578 0.742-0.826 1.322-0.578 0.578 0.165 0.826 0.826 0.66 1.405-0.826 1.818-1.24 3.059-1.404 3.555v1.652c0 0.579-0.578 0.992-1.074 0.992-0.662 0-1.076-0.413-1.076-0.992v-1.818zm0 6.035c0-0.579 0.414-1.075 1.076-1.075 0.496 0 1.074 0.496 1.074 1.075v4.299c0 0.578-0.578 1.074-1.074 1.074-0.662 0-1.076-0.496-1.076-1.074v-4.299zm0 8.597c0-0.579 0.414-1.157 1.076-1.157 0.496 0 1.074 0.578 1.074 1.157v4.216c0 0.662-0.578 1.075-1.074 1.075-0.662 0-1.076-0.413-1.076-1.075v-4.216zm3.472-22.734c0.744-1.323 1.488-2.646 2.398-3.804 0.33-0.496 0.992-0.578 1.486-0.248 0.414 0.414 0.58 0.992 0.248 1.571-0.826 1.157-1.57 2.314-2.23 3.39-0.248 0.413-0.496 0.661-0.992 0.661-0.166 0-0.332-0.165-0.496-0.248-0.58-0.165-0.662-0.909-0.414-1.322zm5.291-7.193c1.074-0.909 2.317-1.901 3.557-2.811 0.496-0.165 1.156-0.083 1.488 0.496 0.33 0.413 0.082 1.157-0.332 1.405-1.156 0.661-2.232 1.571-3.225 2.563-0.166 0.165-0.578 0.248-0.744 0.248-0.33 0-0.496-0.083-0.744-0.248-0.414-0.495-0.414-1.239 0-1.653zm7.69-4.547c1.406-0.413 2.895-0.661 4.465-0.826 0.578 0 1.074 0.578 1.074 1.074 0 0.662-0.414 1.075-1.074 1.075-1.322 0.165-2.646 0.33-3.887 0.661 0 0-0.164 0.083-0.248 0.083-0.496 0-0.992-0.331-1.074-0.827-0.166-0.496 0.082-1.074 0.744-1.24z"/>
	<path d="m273.07 236.85c0-1.24 0.084-2.563 0.414-3.803 0.082-0.496 0.66-0.992 1.156-0.909 0.662 0.165 0.91 0.661 0.828 1.322-0.166 1.157-0.332 2.232-0.332 3.39v0.414c0 0.661-0.412 1.157-0.908 1.157h-0.084c-0.578 0-1.074-0.496-1.074-1.075v-0.496zm0.496 4.878c-0.082-0.579 0.33-1.075 0.826-1.24 0.496-0.248 1.158 0.165 1.24 0.744 0.332 1.323 0.744 2.563 1.24 3.721 0.332 0.495 0 1.157-0.496 1.322-0.082 0.165-0.164 0.165-0.412 0.165-0.414 0-0.662-0.248-0.91-0.661-0.661-1.241-1.074-2.646-1.488-4.051zm1.075-12.897c0.662-1.323 1.24-2.646 2.068-3.804 0.33-0.578 1.074-0.578 1.488-0.33 0.496 0.33 0.578 0.909 0.248 1.488-0.662 0.991-1.324 2.149-1.82 3.389-0.248 0.414-0.578 0.744-0.992 0.744-0.164 0-0.33-0.082-0.33-0.082-0.578-0.248-0.91-0.827-0.662-1.405zm2.728 20.668c-0.496-0.414-0.33-0.992 0.166-1.406 0.414-0.33 0.992-0.247 1.406 0.166 0.742 1.074 1.734 1.984 2.727 2.976 0.414 0.248 0.414 0.91 0.166 1.406-0.248 0.165-0.578 0.33-0.91 0.33-0.164 0-0.412-0.165-0.578-0.165-1.159-0.993-2.149-1.985-2.977-3.307zm2.233-27.778c1.074-1.074 2.232-1.901 3.555-2.646 0.414-0.248 1.158-0.083 1.322 0.331 0.332 0.496 0.084 1.157-0.33 1.488-1.156 0.578-2.148 1.405-3.225 2.231-0.164 0.248-0.412 0.331-0.578 0.331-0.33 0-0.662-0.083-0.826-0.331-0.333-0.412-0.333-0.991 0.082-1.404zm4.382 33.399c-0.58-0.248-0.744-0.826-0.58-1.322 0.332-0.496 0.992-0.744 1.488-0.496 1.158 0.578 2.398 0.992 3.639 1.322 0.66 0.083 0.992 0.662 0.826 1.24-0.082 0.496-0.578 0.827-0.992 0.827h-0.248c-1.488-0.414-2.894-0.827-4.133-1.571zm3.223-37.781c1.324-0.413 2.811-0.661 4.299-0.744 0.58 0 1.076 0.414 1.076 1.075 0 0.579-0.414 0.992-1.076 0.992-1.322 0.165-2.563 0.33-3.803 0.661-0.082 0.083-0.248 0.083-0.248 0.083-0.412 0-0.908-0.331-0.992-0.744-0.164-0.579 0.084-1.157 0.744-1.323zm5.209 37.699c1.322 0 2.729-0.166 3.885-0.496 0.58-0.166 1.076 0.165 1.324 0.744 0 0.578-0.248 1.074-0.744 1.322-1.488 0.248-2.895 0.496-4.383 0.496-0.66 0-0.992-0.413-0.992-1.075-0.164-0.495 0.332-0.991 0.91-0.991zm3.141-36.046c-0.66-0.165-0.99-0.578-0.908-1.157 0.082-0.578 0.66-0.909 1.24-0.826 1.488 0.33 2.811 0.744 4.217 1.405 0.494 0.248 0.66 0.909 0.412 1.405-0.166 0.331-0.578 0.579-0.908 0.579-0.166 0-0.414 0-0.414-0.166-1.159-0.496-2.481-0.909-3.639-1.24zm4.3 34.062c1.156-0.661 2.314-1.323 3.223-2.232 0.414-0.331 1.158-0.248 1.488 0.165 0.414 0.414 0.414 0.992-0.164 1.406-0.992 0.991-2.232 1.818-3.473 2.479-0.248 0.166-0.332 0.166-0.58 0.166-0.246 0-0.742-0.166-0.908-0.496-0.248-0.579 0-1.158 0.414-1.488zm2.645-30.754c-0.414-0.331-0.578-0.909-0.248-1.405 0.414-0.496 0.992-0.496 1.406-0.166 1.156 0.827 2.23 1.901 3.141 3.142 0.496 0.413 0.33 1.075-0.082 1.488-0.166 0.083-0.496 0.165-0.744 0.165s-0.578-0.165-0.826-0.413c-0.745-1.076-1.655-1.985-2.647-2.811zm3.225 25.628c0.826-0.992 1.404-2.149 1.984-3.39 0.164-0.496 0.744-0.744 1.322-0.496 0.496 0.166 0.744 0.827 0.578 1.323-0.578 1.405-1.322 2.563-2.148 3.886-0.166 0.165-0.58 0.413-0.828 0.413s-0.412-0.165-0.66-0.248c-0.497-0.331-0.579-1.075-0.248-1.488zm1.57-19.428c-0.248-0.579 0-1.157 0.414-1.405 0.578-0.331 1.156-0.166 1.488 0.413 0.578 1.24 1.156 2.729 1.488 4.051 0.082 0.579-0.248 1.157-0.744 1.323h-0.332c-0.412 0-0.826-0.331-0.908-0.827-0.332-1.241-0.828-2.481-1.406-3.555zm1.57 12.318c0.248-1.24 0.332-2.646 0.332-3.969v-0.826c0-0.579 0.412-0.992 1.074-1.158 0.496 0 1.074 0.414 1.074 1.075v0.909c0 1.571-0.166 2.977-0.496 4.382-0.082 0.496-0.496 0.827-1.074 0.827h-0.166c-0.496-0.082-0.826-0.744-0.744-1.24z"/>
	<path d="m325 217.59c0-0.496 0.412-1.074 1.074-1.074 0.496 0 1.074 0.578 1.074 1.074v4.299c0 0.662-0.578 1.075-1.074 1.075-0.662 0-1.074-0.413-1.074-1.075v-4.299zm0 8.599c0-0.579 0.412-1.158 1.074-1.158 0.496 0 1.074 0.579 1.074 1.158v4.216c0 0.661-0.578 1.075-1.074 1.075-0.662 0-1.074-0.414-1.074-1.075v-4.216zm0 10.995v-2.48c0-0.578 0.412-1.074 1.074-1.074h0.166c0.082-0.166 0.248-0.414 0.33-0.662 0.166-0.578 0.744-0.826 1.322-0.578 0.58 0.165 0.828 0.826 0.662 1.405-0.826 1.818-1.24 3.059-1.406 3.555v1.652c0 0.579-0.578 0.992-1.074 0.992-0.662 0-1.074-0.413-1.074-0.992v-1.818zm0 6.035c0-0.579 0.412-1.075 1.074-1.075 0.496 0 1.074 0.496 1.074 1.075v4.299c0 0.578-0.578 1.074-1.074 1.074-0.662 0-1.074-0.496-1.074-1.074v-4.299zm0 8.597c0-0.579 0.412-1.157 1.074-1.157 0.496 0 1.074 0.578 1.074 1.157v4.216c0 0.662-0.578 1.075-1.074 1.075-0.662 0-1.074-0.413-1.074-1.075v-4.216zm3.473-22.734c0.742-1.323 1.486-2.646 2.396-3.804 0.33-0.496 0.992-0.578 1.488-0.248 0.414 0.414 0.578 0.992 0.248 1.571-0.826 1.157-1.57 2.314-2.232 3.39-0.248 0.413-0.496 0.661-0.992 0.661-0.166 0-0.33-0.165-0.496-0.248-0.578-0.165-0.66-0.909-0.412-1.322zm5.291-7.193c1.074-0.909 2.314-1.901 3.555-2.811 0.496-0.165 1.156-0.083 1.488 0.496 0.33 0.413 0.082 1.157-0.332 1.405-1.156 0.661-2.232 1.571-3.225 2.563-0.164 0.165-0.578 0.248-0.744 0.248-0.33 0-0.494-0.083-0.742-0.248-0.414-0.495-0.414-1.239 0-1.653zm7.687-4.547c1.406-0.413 2.895-0.661 4.465-0.826 0.578 0 1.074 0.578 1.074 1.074 0 0.662-0.414 1.075-1.074 1.075-1.322 0.165-2.646 0.33-3.887 0.661 0 0-0.164 0.083-0.248 0.083-0.496 0-0.992-0.331-1.074-0.827-0.166-0.496 0.082-1.074 0.744-1.24z"/>
</g>
<g fill="#FB503B">
	<path d="m186.93 127.97v26.539h-24.859v20.324h-26.539v-20.324h-31.746c-12.43 0-24.188-7.055-24.188-20.66 0-5.711 2.352-11.086 5.711-15.621l37.625-49.719h39.137v59.461h24.859zm-51.399-31.914l-24.02 31.914h24.02v-31.914z"/>
	<path d="m304.67 122.26c0 30.234-23.852 56.102-54.59 56.102s-54.758-25.867-54.758-56.102c0-30.402 24.02-56.102 54.758-56.102s54.59 25.7 54.59 56.102zm-26.371 0c0-15.789-12.094-29.73-28.219-29.73s-28.387 13.941-28.387 29.73c0 15.621 12.094 29.563 28.387 29.563 16.125-1e-3 28.219-13.942 28.219-29.563z"/>
	<path d="m420.4 127.97v26.539h-24.859v20.324h-26.539v-20.324h-31.746c-12.43 0-24.188-7.055-24.188-20.66 0-5.711 2.352-11.086 5.711-15.621l37.625-49.719h39.137v59.461h24.859zm-51.398-31.914l-24.02 31.914h24.02v-31.914z"/>
</g>
</svg>
